<svg width="23" height="25" viewBox="0 0 23 25" fill="none" xmlns="http://www.w3.org/2000/svg">
<path d="M17.4674 6.24477H21.0727C21.2908 6.24499 21.501 6.32613 21.6626 6.47249C21.8243 6.61885 21.9258 6.81999 21.9477 7.03696L22.4846 12.4062H20.7136L20.2735 8.00519H17.4674V10.6458C17.4674 10.8793 17.3747 11.1031 17.2096 11.2682C17.0445 11.4333 16.8206 11.526 16.5872 11.526C16.3537 11.526 16.1299 11.4333 15.9648 11.2682C15.7997 11.1031 15.707 10.8793 15.707 10.6458V8.00519H8.66531V10.6458C8.66531 10.8793 8.57257 11.1031 8.4075 11.2682C8.24243 11.4333 8.01855 11.526 7.7851 11.526C7.55166 11.526 7.32777 11.4333 7.1627 11.2682C6.99763 11.1031 6.90489 10.8793 6.90489 10.6458V8.00519H4.09703L2.6887 22.0885H12.1861V23.8489H1.71519C1.59224 23.8488 1.47069 23.8229 1.35836 23.773C1.24603 23.723 1.14541 23.6501 1.06298 23.5589C0.980557 23.4677 0.918153 23.3602 0.879792 23.2434C0.841431 23.1266 0.827964 23.003 0.840258 22.8807L2.42463 7.03696C2.44644 6.81999 2.548 6.61885 2.70965 6.47249C2.87129 6.32613 3.0815 6.24499 3.29956 6.24477H6.90489V5.63039C6.90489 2.57782 9.25681 0.083313 12.1861 0.083313C15.1155 0.083313 17.4674 2.57782 17.4674 5.63039V6.24653V6.24477ZM15.707 6.24477V5.63039C15.707 3.52845 14.1191 1.84373 12.1861 1.84373C10.2532 1.84373 8.66531 3.52845 8.66531 5.63039V6.24653H15.707V6.24477ZM21.247 19.3423C21.3273 19.2549 21.4244 19.1847 21.5326 19.1358C21.6407 19.0869 21.7576 19.0604 21.8762 19.0579C21.9949 19.0554 22.1128 19.0768 22.2229 19.121C22.333 19.1652 22.4331 19.2312 22.517 19.3151C22.601 19.3989 22.6671 19.4989 22.7115 19.6089C22.7558 19.719 22.7775 19.8369 22.7751 19.9555C22.7727 20.0741 22.7464 20.1911 22.6977 20.2993C22.649 20.4075 22.5789 20.5047 22.4916 20.5851L18.9708 24.106C18.8057 24.271 18.5819 24.3637 18.3485 24.3637C18.1151 24.3637 17.8912 24.271 17.7262 24.106L14.2053 20.5851C14.1213 20.5039 14.0542 20.4068 14.0081 20.2994C13.962 20.192 13.9377 20.0765 13.9367 19.9597C13.9356 19.8428 13.9579 19.7269 14.0022 19.6187C14.0464 19.5105 14.1118 19.4122 14.1944 19.3296C14.2771 19.247 14.3754 19.1816 14.4835 19.1373C14.5917 19.0931 14.7076 19.0708 14.8245 19.0718C14.9414 19.0728 15.0569 19.0971 15.1642 19.1433C15.2716 19.1894 15.3688 19.2564 15.45 19.3405L17.4674 21.3597V15.0469C17.4674 14.8134 17.5601 14.5895 17.7252 14.4245C17.8903 14.2594 18.1142 14.1666 18.3476 14.1666C18.581 14.1666 18.8049 14.2594 18.97 14.4245C19.1351 14.5895 19.2278 14.8134 19.2278 15.0469V21.3597L21.247 19.3405V19.3423Z" fill="#F2C8ED"/>
</svg>
