<svg width="23" height="24" viewBox="0 0 23 24" fill="none" xmlns="http://www.w3.org/2000/svg">
<path d="M10.515 12C13.549 12 16.0085 9.57487 16.0085 6.58332C16.0085 3.59178 13.549 1.16666 10.515 1.16666C7.48106 1.16666 5.02156 3.59178 5.02156 6.58332C5.02156 9.57487 7.48106 12 10.515 12Z" stroke="#20AEF3" stroke-width="1.5"/>
<path d="M14.91 16.3333H21.5022M16.0087 22.8333H3.11671C2.8051 22.8334 2.49704 22.7681 2.21298 22.6418C1.92892 22.5155 1.67534 22.3311 1.46909 22.1008C1.26284 21.8704 1.10862 21.5995 1.01668 21.3059C0.924739 21.0124 0.897173 20.7029 0.935813 20.398L1.3643 17.0136C1.46395 16.2274 1.85148 15.5041 2.45402 14.9798C3.05656 14.4555 3.83259 14.1663 4.6362 14.1666H5.02184L16.0087 22.8333ZM18.2061 13.0833V19.5833V13.0833Z" stroke="#20AEF3" stroke-width="1.5" stroke-linecap="round" stroke-linejoin="round"/>
</svg>
