<svg width="21" height="25" viewBox="0 0 21 25" fill="none" xmlns="http://www.w3.org/2000/svg">
<path d="M15.6655 2.69315H18.4314C18.7277 2.69315 19.012 2.81204 19.2215 3.02367C19.4311 3.2353 19.5489 3.52233 19.5489 3.82163V22.4415C19.5489 22.7408 19.4311 23.0279 19.2215 23.2395C19.012 23.4511 18.7277 23.57 18.4314 23.57H2.78635C2.48997 23.57 2.20573 23.4511 1.99616 23.2395C1.78659 23.0279 1.66885 22.7408 1.66885 22.4415V3.82163C1.66885 3.52233 1.78659 3.2353 1.99616 3.02367C2.20573 2.81204 2.48997 2.69315 2.78635 2.69315H6.6976V4.38587H14.5201V2.69315H15.6655Z" stroke="#A9DFD8" stroke-width="1.5" stroke-linejoin="round"/>
<path d="M12.2855 9.4636L7.81551 13.9781H13.4052L8.93301 18.492M6.69801 1H14.5205V4.38544H6.69801V1Z" stroke="#A9DFD8" stroke-width="1.5" stroke-linecap="round" stroke-linejoin="round"/>
</svg>
