<svg width="257" height="186" viewBox="0 0 257 186" fill="none" xmlns="http://www.w3.org/2000/svg">
<path d="M100.825 1.80002C68.1581 7.26669 40.0248 20.3334 13.8915 42.2C-0.241855 53.9334 -2.10852 57 1.75814 62.2C6.15814 68.2 8.82481 67.5334 20.5581 57.4C52.9581 29.4 88.4248 15.8 128.825 15.8C169.491 15.8 206.025 29.9334 238.425 58.4667C246.691 65.6667 250.025 66.6 254.158 62.4667C258.425 58.2 257.491 54.4667 250.025 47.5334C224.158 23.2667 192.158 7.66669 156.158 1.80002C141.758 -0.599981 114.691 -0.599981 100.825 1.80002Z" fill="white"/>
<path d="M103.625 48.4667C90.2913 51.5334 82.4247 54.3334 69.8913 60.7334C58.2913 66.6 42.6913 78.6 37.6247 85.5334C35.0913 89 35.0913 89.5334 36.958 92.8667C40.2913 99 46.158 98.4667 53.758 91.4C66.0247 80.2 81.0913 71.6667 98.158 66.2C106.825 63.5334 110.825 63.1334 128.825 63.1334C151.091 63.1334 161.091 65.1334 175.891 72.7334C182.158 75.8 182.558 75.9334 188.558 73.9334C191.891 72.7334 197.091 71.8 200.025 71.8H205.358L200.691 68.3334C193.758 63.1334 173.358 53.5334 162.158 50.3334C149.091 46.6 116.558 45.5334 103.625 48.4667Z" fill="white"/>
<path d="M188.825 78.0667C177.492 81.9334 168.425 90.4667 163.092 102.067C160.825 107 160.158 110.867 160.158 119.133C160.292 132.733 163.758 141.133 173.358 150.2C191.225 167 217.225 166.467 234.425 148.867C255.492 127.4 247.092 89.1334 219.092 78.7334C209.892 75.2667 197.625 75 188.825 78.0667ZM192.825 103.133L202.825 113.133L213.092 102.867L223.492 92.6L226.425 95.5334L229.492 98.4667L219.092 108.733L208.825 119.133L219.092 129.4C229.225 139.667 229.358 139.667 226.825 142.467L224.292 145.267L213.892 134.867L203.492 124.467L193.092 134.867L182.825 145.133L179.758 142.2L176.825 139.133L187.092 128.867L197.492 118.467L187.092 108.067C177.358 98.3334 176.958 97.5334 179.092 95.4C180.425 94.2 181.758 93.1334 182.158 93.1334C182.558 93.1334 187.358 97.6667 192.825 103.133Z" fill="white"/>
<path d="M119.492 93.1334C107.358 94.7334 94.9583 99.5334 85.0917 106.467C71.3583 116.067 68.6917 121 74.1583 126.467C78.1583 130.467 81.4917 129.8 89.7583 122.867C99.3583 115.267 109.092 110.733 120.292 109.267C129.892 107.8 142.825 109.267 150.558 112.467L155.492 114.467L156.292 110.867C156.692 108.733 157.625 105.4 158.292 103.267C158.958 101.133 159.492 99.2667 159.492 99C159.492 98.7334 155.492 97.4 150.558 95.9334C139.492 92.7334 129.225 91.8 119.492 93.1334Z" fill="white"/>
<path d="M117.491 140.733C105.224 145.133 98.5578 151.667 100.024 157.667C101.091 162.2 125.224 185.133 128.958 185.133C132.958 185.133 158.158 160.2 158.158 156.2C158.158 151.933 153.358 147 145.624 143.133C136.158 138.467 126.158 137.667 117.491 140.733ZM136.558 156.333C136.958 156.867 135.491 159.133 133.091 161.4L128.824 165.667L124.824 161.8C120.158 157.4 119.891 156.2 123.224 155.267C126.024 154.467 135.358 155.267 136.558 156.333Z" fill="white"/>
</svg>
