<svg width="12" height="13" viewBox="0 0 12 13" fill="none" xmlns="http://www.w3.org/2000/svg">
<path d="M11.4 6.67674V6.67681V11.3147C11.4 11.4676 11.3386 11.6156 11.2269 11.726C11.1149 11.8366 10.9615 11.9 10.8 11.9H1.2C1.03849 11.9 0.885074 11.8366 0.773106 11.726C0.661389 11.6156 0.6 11.4676 0.6 11.3147V6.67681V6.67674C0.599974 6.43682 0.649529 6.19922 0.745848 5.97842C0.842175 5.75761 0.983357 5.55802 1.16115 5.3921L1.16122 5.39204L5.58502 1.26259L5.5851 1.26251C5.69608 1.15888 5.84443 1.1 6 1.1C6.15557 1.1 6.30393 1.15888 6.4149 1.26251L6.41498 1.26259L10.8388 5.39204L10.8388 5.3921C11.0166 5.55802 11.1578 5.75761 11.2542 5.97842C11.3505 6.19922 11.4 6.43682 11.4 6.67674Z" stroke="#171821" stroke-width="1.2" stroke-linecap="round" stroke-linejoin="round"/>
</svg>
