<svg width="14" height="15" viewBox="0 0 14 15" fill="none" xmlns="http://www.w3.org/2000/svg">
<path d="M13 12.4235V7.68081C13 7.35085 12.9334 7.02436 12.8041 6.72133C12.6748 6.4183 12.4857 6.14512 12.2482 5.91852L7.8244 1.6958C7.6016 1.48305 7.30661 1.3645 7 1.3645C6.69339 1.3645 6.3984 1.48305 6.1756 1.6958L1.7518 5.91852C1.51433 6.14512 1.32517 6.4183 1.1959 6.72133C1.06663 7.02436 0.999965 7.35085 1 7.68081V12.4235C1 12.7449 1.12643 13.0532 1.35147 13.2805C1.57652 13.5078 1.88174 13.6355 2.2 13.6355H11.8C12.1183 13.6355 12.4235 13.5078 12.6485 13.2805C12.8736 13.0532 13 12.7449 13 12.4235Z" stroke="#87888C" stroke-width="1.2" stroke-linecap="round" stroke-linejoin="round"/>
</svg>
