<svg width="15" height="14" viewBox="0 0 15 14" fill="none" xmlns="http://www.w3.org/2000/svg">
<path d="M5.49821 12.6C4.47072 12.3123 3.54016 11.78 2.79711 11.0549C3.03618 10.789 3.18521 10.4622 3.22513 10.1164C3.26506 9.77063 3.19405 9.42151 3.0212 9.11377C2.84836 8.80602 2.58153 8.55364 2.25487 8.38891C1.92821 8.22419 1.55657 8.15462 1.18751 8.18911C1.10343 7.80287 1.06118 7.40965 1.0614 7.01545C1.0614 6.40663 1.1608 5.81936 1.34592 5.26763H1.37202C1.68877 5.26773 2.00032 5.19211 2.27725 5.04792C2.55418 4.90373 2.78736 4.69572 2.95476 4.44354C3.12216 4.19135 3.21826 3.90332 3.234 3.60663C3.24973 3.30994 3.18457 3.01438 3.04467 2.74787C3.77293 2.1119 4.65367 1.6496 5.61252 1.40001C5.76856 1.68735 6.00633 1.92861 6.2995 2.09708C6.59268 2.26556 6.92984 2.35469 7.27368 2.35461C7.61752 2.35469 7.95468 2.26556 8.24785 2.09708C8.54103 1.92861 8.7788 1.68735 8.93484 1.40001C9.89369 1.6496 10.7744 2.1119 11.5027 2.74787C11.3618 3.01625 11.2967 3.31406 11.3136 3.61279C11.3305 3.91152 11.4289 4.20118 11.5994 4.45403C11.7699 4.70689 12.0067 4.91448 12.2872 5.05693C12.5677 5.19938 12.8825 5.27193 13.2014 5.26763C13.3906 5.83326 13.4865 6.42266 13.486 7.01545C13.486 7.41745 13.4425 7.81012 13.3598 8.18911C12.9908 8.15462 12.6191 8.22419 12.2925 8.38891C11.9658 8.55364 11.699 8.80602 11.5262 9.11377C11.3533 9.42151 11.2823 9.77063 11.3222 10.1164C11.3621 10.4622 11.5112 10.789 11.7502 11.0549C11.0072 11.78 10.0766 12.3123 9.04915 12.6C8.92849 12.2473 8.69154 11.9397 8.37245 11.7214C8.05337 11.5032 7.66862 11.3856 7.27368 11.3856C6.87873 11.3856 6.49399 11.5032 6.1749 11.7214C5.85582 11.9397 5.61887 12.2473 5.49821 12.6Z" stroke="#87888C" stroke-width="1.2" stroke-linejoin="round"/>
<path d="M7.27409 9.05413C7.55962 9.05413 7.84236 9.00138 8.10616 8.89891C8.36995 8.79643 8.60965 8.64623 8.81155 8.45688C9.01345 8.26753 9.17361 8.04274 9.28288 7.79535C9.39215 7.54795 9.44839 7.28279 9.44839 7.01501C9.44839 6.74723 9.39215 6.48207 9.28288 6.23467C9.17361 5.98728 9.01345 5.76248 8.81155 5.57313C8.60965 5.38379 8.36995 5.23358 8.10616 5.13111C7.84236 5.02863 7.55962 4.97589 7.27409 4.97589C6.69743 4.97589 6.14439 5.19073 5.73663 5.57313C5.32887 5.95554 5.09979 6.4742 5.09979 7.01501C5.09979 7.55582 5.32887 8.07447 5.73663 8.45688C6.14439 8.83929 6.69743 9.05413 7.27409 9.05413V9.05413Z" stroke="#87888C" stroke-width="1.2" stroke-linejoin="round"/>
</svg>
