<svg width="15" height="14" viewBox="0 0 15 14" fill="none" xmlns="http://www.w3.org/2000/svg">
<path d="M8.62228 3.60077V2.35949C8.62227 2.17145 8.58661 1.98545 8.51756 1.81325C8.4485 1.64106 8.34756 1.48641 8.2211 1.35908C8.09464 1.23175 7.94541 1.13452 7.78286 1.07352C7.6203 1.01252 7.44795 0.989083 7.2767 1.00469L2.30687 1.45742C1.99629 1.48573 1.70677 1.64073 1.49574 1.89167C1.2847 2.14262 1.16756 2.47119 1.16754 2.81222V11.1871C1.16756 11.5281 1.2847 11.8567 1.49574 12.1076C1.70677 12.3586 1.99629 12.5136 2.30687 12.5419L7.2767 12.9953C7.448 13.0109 7.62041 12.9875 7.78301 12.9264C7.9456 12.8654 8.09486 12.7681 8.22133 12.6407C8.34779 12.5133 8.44873 12.3586 8.51774 12.1863C8.58676 12.014 8.62235 11.8279 8.62228 11.6398V10.3986M8.00105 6.99966H13.5921H8.00105ZM13.5921 6.99966L11.5215 4.28055L13.5921 6.99966ZM13.5921 6.99966L11.5215 9.71878L13.5921 6.99966Z" stroke="#87888C" stroke-width="1.2" stroke-linecap="round" stroke-linejoin="round"/>
</svg>
