<svg width="14" height="14" viewBox="0 0 14 14" fill="none" xmlns="http://www.w3.org/2000/svg">
<path d="M2.19772 6.20562V11.6594H4.68263V6.20562H2.19772ZM5.92508 2.11528V11.6594H8.41V2.11528H5.92508ZM9.65245 7.56906V11.6594H12.1374V7.56906H9.65245ZM12.1374 13.0228H2.19772C1.85604 13.0228 1.56365 12.8895 1.32054 12.6227C1.07702 12.3554 0.955261 12.0343 0.955261 11.6594V6.20562C0.955261 5.83067 1.07702 5.50958 1.32054 5.24234C1.56365 4.97556 1.85604 4.84217 2.19772 4.84217H4.68263V2.11528C4.68263 1.74033 4.80439 1.41924 5.04791 1.152C5.29102 0.885221 5.58341 0.751831 5.92508 0.751831H8.41C8.75167 0.751831 9.04427 0.885221 9.28779 1.152C9.5309 1.41924 9.65245 1.74033 9.65245 2.11528V6.20562H12.1374C12.479 6.20562 12.7716 6.33901 13.0152 6.60579C13.2583 6.87302 13.3798 7.19412 13.3798 7.56906V11.6594C13.3798 12.0343 13.2583 12.3554 13.0152 12.6227C12.7716 12.8895 12.479 13.0228 12.1374 13.0228Z" fill="#87888C"/>
</svg>
