<svg width="12" height="6" viewBox="0 0 12 6" fill="none" xmlns="http://www.w3.org/2000/svg">
<path d="M11.9999 0.995264C12.0004 1.1233 11.9721 1.24981 11.9172 1.3655C11.8624 1.48119 11.7823 1.58311 11.6828 1.66377L6.54046 5.80338C6.3871 5.92944 6.19474 5.99835 5.99622 5.99835C5.7977 5.99835 5.60534 5.92944 5.45199 5.80338L0.309616 1.51807C0.134589 1.37259 0.0245216 1.16355 0.00362666 0.936918C-0.0172683 0.710289 0.052721 0.48464 0.198197 0.309614C0.343674 0.134588 0.552721 0.0245204 0.779351 0.00362539C1.00598 -0.0172696 1.23163 0.0527191 1.40665 0.198196L6.00051 4.02926L10.5944 0.326756C10.7202 0.221951 10.8734 0.155377 11.0358 0.134911C11.1983 0.114445 11.3632 0.140943 11.5111 0.211269C11.6589 0.281596 11.7835 0.392809 11.8702 0.531747C11.9568 0.670686 12.0019 0.831536 11.9999 0.995264Z" fill="white"/>
</svg>
